HIERARCHY
ROOT Hips
{
	OFFSET	0.00	0.00	0.00
	CHANNELS 6 Xposition Yposition Zposition Zrotation Xrotation Yrotation
	JOINT LeftUpLeg
	{
		OFFSET	 0.126116	-0.014019	-0.065224
		CHANNELS 3 Zrotation Xrotation Yrotation
		JOINT LeftLeg
		{
			OFFSET	 0.000000	 0.000000	 0.569914
			CHANNELS 3 Zrotation Xrotation Yrotation
			JOINT LeftFoot
			{
				OFFSET	 0.000000	 0.000000	 0.544423
				CHANNELS 3 Zrotation Xrotation Yrotation
				JOINT LeftToeBase
				{
					OFFSET	 0.000000	 0.000000	 0.207117
					CHANNELS 3 Zrotation Xrotation Yrotation
					End Site
					{
						OFFSET	 0.000000	 0.000000	 0.207117
					}
				}
			}
		}
	}
	JOINT RightUpLeg
	{
		OFFSET	-0.124023	-0.008373	-0.065224
		CHANNELS 3 Zrotation Xrotation Yrotation
		JOINT RightLeg
		{
			OFFSET	 0.000000	 0.000000	 0.570047
			CHANNELS 3 Zrotation Xrotation Yrotation
			JOINT RightFoot
			{
				OFFSET	 0.000000	 0.000000	 0.544354
				CHANNELS 3 Zrotation Xrotation Yrotation
				JOINT RightToeBase
				{
					OFFSET	 0.000000	 0.000000	 0.207540
					CHANNELS 3 Zrotation Xrotation Yrotation
					End Site
					{
						OFFSET	 0.000000	 0.000000	 0.207540
					}
				}
			}
		}
	}
	JOINT Spine
	{
		OFFSET	 0.000184	-0.007763	 0.117403
		CHANNELS 3 Zrotation Xrotation Yrotation
		JOINT Spine1
		{
			OFFSET	 0.000000	 0.000000	 0.137269
			CHANNELS 3 Zrotation Xrotation Yrotation
			JOINT Spine2
			{
				OFFSET	 0.000000	 0.000000	 0.156879
				CHANNELS 3 Zrotation Xrotation Yrotation
				JOINT LeftShoulder
				{
					OFFSET	 0.080501	-0.002496	 0.160144
					CHANNELS 3 Zrotation Xrotation Yrotation
					JOINT LeftArm
					{
						OFFSET	 0.000000	 0.000000	 0.164363
						CHANNELS 3 Zrotation Xrotation Yrotation
						JOINT LeftForeArm
						{
							OFFSET	 0.000000	 0.000000	 0.364576
							CHANNELS 3 Zrotation Xrotation Yrotation
							JOINT LeftHand
							{
								OFFSET	 0.000000	 0.000000	 0.360812
								CHANNELS 3 Zrotation Xrotation Yrotation
								JOINT LeftHandIndex1
								{
									OFFSET	 0.000000	 0.000000	 0.086006
									CHANNELS 3 Zrotation Xrotation Yrotation
									JOINT LeftHandIndex2
									{
										OFFSET	 0.000000	 0.000000	 0.047236
										CHANNELS 3 Zrotation Xrotation Yrotation
										JOINT LeftHandIndex3
										{
											OFFSET	-0.004284	-0.000551	 0.038166
											CHANNELS 3 Zrotation Xrotation Yrotation
											End Site
											{
												OFFSET	-0.004284	-0.000551	 0.038166
											}
										}
									}
								}
							}
						}
					}
				}
				JOINT Neck
				{
					OFFSET	 0.000000	 0.000000	 0.176489
					CHANNELS 3 Zrotation Xrotation Yrotation
					JOINT Head
					{
						OFFSET	 0.000000	-0.001747	 0.077940
						CHANNELS 3 Zrotation Xrotation Yrotation
						End Site
						{
							OFFSET	 0.000000	-0.001747	 0.077940
						}
					}
				}
				JOINT RightShoulder
				{
					OFFSET	-0.080363	 0.000306	 0.159706
					CHANNELS 3 Zrotation Xrotation Yrotation
					JOINT RightArm
					{
						OFFSET	 0.000000	 0.000000	 0.164196
						CHANNELS 3 Zrotation Xrotation Yrotation
						JOINT RightForeArm
						{
							OFFSET	 0.000000	 0.000000	 0.365611
							CHANNELS 3 Zrotation Xrotation Yrotation
							JOINT RightHand
							{
								OFFSET	 0.000000	 0.000000	 0.360648
								CHANNELS 3 Zrotation Xrotation Yrotation
								JOINT RightHandIndex1
								{
									OFFSET	 0.000000	 0.000000	 0.069977
									CHANNELS 3 Zrotation Xrotation Yrotation
									JOINT RightHandIndex2
									{
										OFFSET	 0.000000	 0.000000	 0.052305
										CHANNELS 3 Zrotation Xrotation Yrotation
										JOINT RightHandIndex3
										{
											OFFSET	 0.009002	-0.000782	 0.042196
											CHANNELS 3 Zrotation Xrotation Yrotation
											End Site
											{
												OFFSET	 0.009002	-0.000782	 0.042196
											}
										}
									}
								}
							}
						}
					}
				}
			}
		}
	}
}
MOTION
Frames:    9
Frame Time: 0.03333334
-0.000516	 0.018312	 1.268517	-0.000606	 0.010398	-0.125764	-13.525020	-2.655782	-179.920600	 1.441029	-14.296590	-0.839993	-4.640133	 72.720740	-1.734713	-2.385833	 28.452760	 0.000004	 13.411510	-3.124876	-179.822400	-1.417215	-15.018540	 0.868116	 4.603102	 72.955660	 1.613789	 2.384658	 28.388730	 0.000004	 2.332957	 1.940989	 0.054202	 1.256123	 6.421176	 0.407969	-3.713764	-8.185381	-0.959547	-91.776130	 78.527490	 179.999900	 61.837860	 42.912660	-44.694530	-7.671605	 4.748806	-11.962000	-30.228080	-19.119100	-4.497261	-2.635965	 4.993658	 6.788941	-5.165319	 0.784187	 3.516649	-5.225038	 0.466231	 0.424329	-0.000002	-3.783157	-0.089647	-3.489964	 3.219263	 0.098087	 89.782090	 78.203870	 180.000000	 7.199409	 13.128730	 86.669470	-33.745630	-4.633061	 13.901170	 1.346922	-19.579450	-6.495122	 6.112037	 4.509576	-0.364401	 4.968462	 1.518543	-9.347576	 5.168945	 0.703820	 2.021906
-0.000535	 0.017913	 1.268538	-0.000707	 0.009489	-0.133824	-13.524430	-2.633637	-179.913100	 1.441595	-14.258610	-0.837670	-4.629209	 72.708260	-1.746315	-2.385833	 28.452760	 0.000004	 13.410820	-3.087559	-179.819100	-1.417682	-14.988730	 0.866313	 4.582438	 72.962940	 1.636214	 2.384658	 28.388730	 0.000004	 2.488201	 1.967229	 0.049797	 1.335302	 6.335076	 0.434506	-3.952850	-8.063904	-1.015320	-91.776220	 78.527450	-180.000000	 61.835010	 42.895990	-44.779750	-7.677797	 4.719819	-11.887600	-30.220030	-19.038410	-4.494804	-2.635965	 4.993658	 6.788941	-5.165319	 0.784187	 3.516649	-5.225038	 0.466231	 0.424329	-0.000002	-3.783157	-0.089647	-3.720482	 3.255691	 0.105755	 89.782070	 78.203920	-180.000000	 7.276113	 13.211720	 86.693750	-33.801460	-4.648012	 13.900090	 1.351533	-19.543100	-6.519414	 6.112037	 4.509576	-0.364401	 4.968462	 1.518543	-9.347576	 5.168945	 0.703820	 2.021906
-0.000551	 0.017566	 1.268556	-0.000762	 0.008661	-0.140588	-13.523940	-2.614897	-179.906800	 1.442074	-14.226830	-0.835722	-4.619907	 72.698010	-1.756185	-2.385833	 28.452760	 0.000004	 13.410170	-3.055214	-179.816500	-1.418079	-14.962970	 0.864755	 4.564521	 72.969350	 1.655637	 2.384658	 28.388730	 0.000004	 2.618796	 1.991252	 0.045768	 1.401575	 6.256085	 0.457287	-4.153335	-7.952879	-1.061211	-91.776060	 78.527490	 179.999900	 61.837100	 42.877850	-44.860700	-7.683116	 4.694408	-11.822320	-30.213650	-18.958210	-4.492745	-2.635965	 4.993658	 6.788941	-5.165319	 0.784187	 3.516649	-5.225038	 0.466231	 0.424329	-0.000002	-3.783157	-0.089647	-3.914488	 3.289507	 0.112431	 89.782180	 78.203890	 179.999900	 7.346697	 13.291830	 86.715820	-33.852750	-4.662110	 13.900040	 1.359568	-19.507180	-6.542057	 6.112037	 4.509576	-0.364401	 4.968462	 1.518543	-9.347576	 5.168945	 0.703820	 2.021906
-0.000569	 0.017183	 1.268573	-0.000792	 0.007714	-0.147737	-13.523470	-2.595217	-179.900100	 1.442573	-14.194010	-0.833711	-4.610177	 72.687840	-1.766549	-2.385833	 28.452760	 0.000004	 13.409430	-3.020139	-179.813900	-1.418508	-14.935660	 0.863100	 4.545116	 72.976910	 1.676717	 2.384658	 28.388730	 0.000004	 2.757697	 2.018895	 0.041099	 1.471709	 6.165040	 0.482238	-4.365931	-7.825222	-1.109009	-91.776210	 78.527450	-180.000000	 61.844610	 42.854560	-44.957470	-7.688814	 4.666618	-11.751070	-30.206850	-18.858230	-4.490266	-2.635965	 4.993658	 6.788941	-5.165319	 0.784187	 3.516649	-5.225038	 0.466231	 0.424329	-0.000002	-3.783157	-0.089647	-4.120938	 3.329033	 0.119789	 89.782210	 78.203870	 179.999900	 7.425566	 13.381420	 86.740270	-33.909740	-4.677935	 13.900630	 1.370800	-19.455120	-6.566329	 6.112037	 4.509576	-0.364401	 4.968462	 1.518543	-9.347576	 5.168945	 0.703820	 2.021906
-0.000585	 0.016786	 1.268589	-0.000865	 0.006794	-0.154557	-13.522940	-2.576202	-179.893500	 1.443034	-14.163000	-0.831813	-4.600633	 72.678860	-1.776696	-2.385833	 28.452760	 0.000004	 13.408640	-2.984394	-179.811700	-1.418941	-14.908180	 0.861440	 4.525335	 72.985210	 1.698171	 2.384658	 28.388730	 0.000004	 2.896033	 2.048726	 0.035769	 1.541188	 6.066188	 0.507544	-4.576777	-7.687218	-1.155236	-91.776210	 78.527470	-180.000000	 61.859290	 42.827880	-45.068740	-7.694987	 4.637518	-11.676440	-30.200060	-18.740400	-4.487606	-2.635965	 4.993658	 6.788941	-5.165319	 0.784187	 3.516649	-5.225038	 0.466231	 0.424329	-0.000002	-3.783157	-0.089647	-4.326577	 3.372482	 0.127415	 89.782100	 78.203890	 180.000000	 7.501323	 13.498480	 86.762040	-33.973700	-4.696629	 13.903360	 1.396627	-19.367890	-6.587031	 6.112037	 4.509576	-0.364401	 4.968462	 1.518543	-9.347576	 5.168945	 0.703820	 2.021906
-0.000598	 0.016371	 1.268601	-0.001083	 0.006021	-0.160573	-13.522280	-2.558598	-179.887500	 1.443446	-14.135370	-0.830122	-4.591621	 72.671810	-1.786289	-2.385833	 28.452760	 0.000004	 13.407930	-2.948270	-179.810400	-1.419363	-14.880860	 0.859786	 4.505367	 72.994390	 1.719833	 2.384658	 28.388730	 0.000004	 3.033872	 2.080806	 0.029270	 1.610081	 5.958743	 0.532951	-4.785835	-7.537860	-1.199615	-91.776210	 78.527470	-180.000000	 61.882420	 42.798890	-45.197610	-7.701170	 4.607197	-11.598720	-30.193410	-18.601120	-4.484693	-2.635965	 4.993658	 6.788941	-5.165319	 0.784187	 3.516649	-5.225038	 0.466231	 0.424329	-0.000002	-3.783157	-0.089647	-4.531486	 3.420450	 0.135356	 89.782140	 78.203920	 180.000000	 7.566583	 13.619350	 86.777320	-34.040890	-4.717312	 13.909730	 1.427085	-19.259170	-6.607537	 6.112037	 4.509576	-0.364401	 4.968462	 1.518543	-9.347576	 5.168945	 0.703820	 2.021906
-0.000608	 0.016023	 1.268610	-0.001075	 0.005568	-0.165254	-13.521960	-2.545233	-179.882800	 1.443752	-14.114810	-0.828867	-4.585040	 72.667210	-1.793306	-2.385833	 28.452760	 0.000004	 13.417780	-2.919467	-179.810500	-1.419677	-14.860630	 0.858561	 4.504603	 73.003220	 1.732378	 2.384658	 28.388730	 0.000004	 3.143741	 2.108321	 0.023630	 1.664585	 5.865767	 0.554200	-4.951961	-7.409092	-1.234076	-91.776260	 78.527420	-180.000000	 61.907740	 42.774030	-45.313900	-7.706103	 4.583457	-11.537790	-30.187970	-18.470680	-4.482138	-2.635965	 4.993658	 6.788941	-5.165319	 0.784187	 3.516649	-5.225038	 0.466231	 0.424329	-0.000002	-3.783157	-0.089647	-4.695029	 3.462533	 0.141974	 89.782140	 78.203870	 180.000000	 7.600965	 13.717780	 86.779850	-34.095530	-4.735899	 13.919390	 1.310261	-19.092520	-6.614844	 6.112037	 4.509576	-0.364401	 4.968462	 1.518543	-9.347576	 5.168945	 0.703820	 2.021906
-0.000617	 0.015619	 1.268607	-0.000890	 0.005223	-0.169967	-13.510740	-2.535786	-179.878700	 1.443926	-14.103190	-0.828158	-4.565169	 72.668260	-1.802666	-2.385833	 28.452760	 0.000004	 13.417240	-2.892273	-179.810700	-1.419863	-14.848730	 0.857843	 4.489868	 73.019460	 1.749085	 2.384658	 28.388730	 0.000004	 3.264426	 2.140811	 0.016618	 1.724009	 5.755108	 0.578587	-5.133820	-7.256377	-1.270821	-91.776210	 78.527450	-180.000000	 61.944230	 42.746730	-45.458070	-7.710943	 4.559640	-11.476750	-30.182040	-18.303000	-4.479078	-2.635965	 4.993658	 6.788941	-5.165319	 0.784187	 3.516649	-5.225038	 0.466231	 0.424329	-0.000002	-3.783157	-0.089647	-4.874892	 3.513332	 0.149585	 89.782070	 78.203870	-180.000000	 7.621536	 13.833220	 86.790530	-34.160940	-4.745516	 13.895730	 1.064501	-18.834170	-6.614766	 6.112037	 4.509576	-0.364401	 4.968462	 1.518543	-9.347576	 5.168945	 0.703820	 2.021906
-0.000618	 0.015196	 1.268559	-0.000696	 0.004850	-0.174345	-13.510040	-2.543960	-179.872500	 1.443548	-14.128760	-0.829720	-4.568390	 72.688400	-1.798870	-2.385833	 28.452760	 0.000004	 13.416700	-2.880824	-179.812600	-1.419520	-14.870600	 0.859166	 4.482546	 73.053680	 1.758055	 2.384658	 28.388730	 0.000004	 3.382025	 2.175293	 0.009116	 1.781504	 5.637470	 0.603071	-5.310140	-7.094706	-1.305128	-91.776190	 78.527420	 180.000000	 61.993450	 42.723060	-45.625290	-7.715432	 4.537623	-11.420330	-30.175890	-18.109590	-4.475690	-2.635965	 4.993658	 6.788941	-5.165319	 0.784187	 3.516649	-5.225038	 0.466231	 0.424329	-0.000002	-3.783157	-0.089647	-5.050293	 3.568209	 0.157397	 89.782170	 78.203850	 179.999900	 7.682274	 14.002040	 86.903240	-34.213740	-4.685067	 13.685130	 0.781133	-18.545150	-6.608698	 6.112037	 4.509576	-0.364401	 4.968462	 1.518543	-9.347576	 5.168945	 0.703820	 2.021906
